<?xml version="1.0" ?><!DOCTYPE svg  PUBLIC '-//W3C//DTD SVG 1.1//EN'  'http://www.w3.org/Graphics/SVG/1.1/DTD/svg11.dtd'><svg height="512px" style="enable-background:new 0 0 512 512;" version="1.1" viewBox="0 0 512 512" width="512px" xml:space="preserve" xmlns="http://www.w3.org/2000/svg" xmlns:xlink="http://www.w3.org/1999/xlink"><g id="_x35_16_x2C__pedestal_x2C__first__x2C__first_place_x2C__education"><g><polygon points="331,66.36 331,106.36 181,106.36 181,66.36 224.93,66.36 255.64,35.64 286.36,66.36   " style="fill:#FEBE76;"/><polygon points="183.5,76.193 227.43,76.193 258.141,45.474 288.86,76.193 331,76.193 331,66.36     286.36,66.36 255.64,35.64 224.93,66.36 181,66.36 181,106.36 183.5,106.36   " style="fill:#E8A664;"/><polygon points="331,336.36 331,296.36 481,296.36 481,436.36 331,436.36   " style="fill:#A8CFFF;"/><polygon points="341.166,347.027 341.166,307.027 481,307.027 481,296.36 331,296.36 331,336.36     331,436.36 341.166,436.36   " style="fill:#8BBAE8;"/><polygon points="31,266.36 31,226.36 181,226.36 181,436.36 31,436.36   " style="fill:#FCD884;"/><polygon points="40.667,276.693 40.667,236.693 181,236.693 181,226.36 31,226.36 31,266.36 31,436.36     40.667,436.36   " style="fill:#EABF6A;"/><path d="M181,186.36v-40h150v150v40v100H181v-210V186.36z" style="fill:#FF7979;"/><polygon points="191,237.86 191,197.86 191,157.86 331,157.86 331,146.36 181,146.36 181,186.36     181,226.36 181,436.36 191,436.36   " style="fill:#D65B5B;"/><path d="M284.37,331.51v14.851h-49.82V331.51h17.42v-37.18c-0.73,0.979-1.9,1.979-3.49,3.01c-1.6,1.021-3.34,1.98-5.22,2.88    c-1.88,0.9-3.82,1.641-5.83,2.21c-2,0.57-3.78,0.86-5.34,0.86v-15.34c1.48,0,3.28-0.47,5.4-1.41c2.13-0.94,4.22-2.07,6.26-3.38    c2.04-1.3,3.82-2.59,5.34-3.86c1.51-1.27,2.47-2.27,2.88-3.01h16.81v55.22H284.37z"/><path d="M331,301.36c-2.762,0-5-2.238-5-5v-145H186v75c0,2.761-2.239,5-5,5s-5-2.239-5-5v-80c0-2.761,2.239-5,5-5h150    c2.762,0,5,2.239,5,5v150C336,299.122,333.762,301.36,331,301.36z"/><path d="M331,441.36H181c-2.761,0-5-2.238-5-5s2.239-5,5-5h150c2.762,0,5,2.238,5,5S333.762,441.36,331,441.36z"/><path d="M481,441.36H331c-2.762,0-5-2.238-5-5v-140c0-2.762,2.238-5,5-5h150c2.762,0,5,2.238,5,5v140    C486,439.122,483.762,441.36,481,441.36z M336,431.36h140v-130H336V431.36z"/><path d="M181,441.36H31c-2.761,0-5-2.238-5-5v-210c0-2.761,2.239-5,5-5h150c2.761,0,5,2.239,5,5v210    C186,439.122,183.761,441.36,181,441.36z M36,431.36h140v-200H36V431.36z"/><path d="M421,341.36h-90c-2.762,0-5-2.238-5-5s2.238-5,5-5h90c2.762,0,5,2.238,5,5S423.762,341.36,421,341.36z"/><path d="M271,191.36h-90c-2.761,0-5-2.239-5-5s2.239-5,5-5h90c2.762,0,5,2.239,5,5S273.762,191.36,271,191.36z"/><path d="M121,271.36H31c-2.761,0-5-2.238-5-5s2.239-5,5-5h90c2.761,0,5,2.238,5,5S123.761,271.36,121,271.36z"/><path d="M331,111.36H181c-2.761,0-5-2.239-5-5v-40c0-2.761,2.239-5,5-5h41.859l29.245-29.255c0.938-0.938,2.209-1.465,3.536-1.465    s2.599,0.527,3.536,1.464l29.256,29.255H331c2.762,0,5,2.239,5,5v40C336,109.121,333.762,111.36,331,111.36z M186,101.36h140v-30    h-39.64c-1.326,0-2.598-0.527-3.535-1.464l-27.185-27.184l-27.174,27.183c-0.938,0.938-2.21,1.465-3.536,1.465H186V101.36z"/><path d="M481,481.36H31c-2.761,0-5-2.238-5-5s2.239-5,5-5h450c2.762,0,5,2.238,5,5S483.762,481.36,481,481.36z"/></g></g><g id="Layer_1"/></svg>