<?xml version="1.0" ?><svg viewBox="0 0 64 64" xmlns="http://www.w3.org/2000/svg"><defs><style>.cls-1{fill:#414042;}.cls-2{fill:#231f20;}.cls-3{fill:#fff200;}.cls-4{fill:#ffbe00;}</style></defs><title/><g id="pricetag-discount"><path class="cls-1" d="M55.52,19l-20-14.84a5.73,5.73,0,0,0-7.07,0L8.44,19A6.35,6.35,0,0,0,6,24V54a6,6,0,0,0,6,6H51c3.24,0,7-2.62,7-6V24A6.37,6.37,0,0,0,55.52,19Z"/><path class="cls-2" d="M58,24V54c0,3.38-3.76,6-7,6H32V2.88a5.73,5.73,0,0,1,3.55,1.23L55.52,19A6.37,6.37,0,0,1,58,24Z"/><circle class="cls-2" cx="32" cy="13" r="4"/><path class="cls-3" d="M44.38,27.43,32,39.25l-9.62,9.18A2,2,0,0,1,21,49a2,2,0,0,1-1.38-3.45L32,33.72l9.62-9.18a2,2,0,1,1,2.76,2.89Z"/><path class="cls-3" d="M30,28.49A6.5,6.5,0,1,0,23.5,35,6.51,6.51,0,0,0,30,28.49Zm-9,0A2.5,2.5,0,1,1,23.5,31,2.5,2.5,0,0,1,21,28.49Z"/><path class="cls-3" d="M40.5,38a6.5,6.5,0,1,0,6.5,6.5A6.51,6.51,0,0,0,40.5,38Zm0,9a2.5,2.5,0,1,1,2.5-2.5A2.5,2.5,0,0,1,40.5,47Z"/><rect class="cls-4" height="4" rx="2" width="29" x="30" y="11"/><path class="cls-4" d="M44.45,24.61a2,2,0,0,0-2.83-.07L32,33.72v5.53L44.38,27.43A2,2,0,0,0,44.45,24.61Z"/><path class="cls-4" d="M40.5,38a6.5,6.5,0,1,0,6.5,6.5A6.51,6.51,0,0,0,40.5,38Zm0,9a2.5,2.5,0,1,1,2.5-2.5A2.5,2.5,0,0,1,40.5,47Z"/></g></svg>